<svg width="30" height="28" viewBox="0 0 30 28" fill="none" xmlns="http://www.w3.org/2000/svg">
<path d="M1.55655 0C2.41657 0 3.1131 0.697757 3.1131 1.5593V4.35929C3.1131 8.44263 4.28891 11.5904 6.60694 13.7173C8.66293 15.6019 11.5476 16.6003 14.9496 16.6003C25.2475 16.6003 26.7861 8.93173 26.7861 4.35929V1.56154C26.7861 0.7 27.4826 0.00224364 28.3427 0.00224364C29.2027 0.00224364 29.8992 0.7 29.8992 1.56154V4.35929C29.8992 9.83365 28.206 13.9596 24.8667 16.6205C21.6529 19.1827 17.6976 19.7189 14.9474 19.7189C10.7525 19.7189 7.13998 18.4378 4.50168 16.017C1.55879 13.3135 0 9.28173 0 4.35929V1.56154C0 0.7 0.696529 0 1.55655 0Z" fill="white"/>
<path d="M14.9518 16.5979C20.3673 16.5979 23.4737 19.905 23.4737 25.671V25.8482C23.4737 26.6582 22.813 27.32 22.0045 27.32C21.0996 27.32 20.3583 26.5774 20.3583 25.671C20.3583 20.3335 17.2721 19.7165 14.9518 19.7165C11.3124 19.7165 9.54308 21.6639 9.54308 25.671V25.8482C9.54308 26.6582 8.88238 27.32 8.07387 27.32C7.16906 27.32 6.42773 26.5774 6.42773 25.671C6.42997 19.905 9.53636 16.5979 14.9518 16.5979Z" fill="white"/>
</svg>
