<svg width="201" height="35" viewBox="0 0 201 35" fill="none" xmlns="http://www.w3.org/2000/svg">
<path d="M81.6437 14.2018L77.778 7.48228C77.2092 6.49286 77.9214 5.25664 79.0613 5.25664H79.1106C79.6414 5.25664 80.1319 5.54157 80.3962 6.00151L83.2898 11.0518C83.563 11.5297 84.2484 11.532 84.5283 11.0586L87.5205 5.98356C87.787 5.53036 88.273 5.25439 88.7971 5.25439C89.9505 5.25439 90.6627 6.51529 90.0669 7.50472L86.0311 14.2108C85.7534 14.673 85.7467 15.2518 86.0177 15.7207L90.3962 23.3063C90.9673 24.2957 90.2551 25.5342 89.1129 25.5342H89.0725C88.5418 25.5342 88.049 25.2493 87.7848 24.7848L84.3514 18.7608C84.0983 18.3188 83.4645 18.3143 83.2047 18.7518L79.619 24.8073C79.3525 25.2582 78.8687 25.5342 78.3447 25.5342H78.3424C77.189 25.5342 76.4768 24.2733 77.0725 23.2839L81.628 15.7118C81.9079 15.2473 81.9146 14.6707 81.6437 14.2018Z" fill="white"/>
<path d="M5.07022 4.52539C5.93025 4.52539 6.62677 5.22315 6.62677 6.08469V8.88469C6.62677 12.968 7.80259 16.1158 10.1206 18.2427C12.1766 20.1273 15.0613 21.1257 18.4633 21.1257C28.7612 21.1257 30.2998 13.4571 30.2998 8.88469V6.08693C30.2998 5.22539 30.9963 4.52763 31.8563 4.52763C32.7164 4.52763 33.4129 5.22539 33.4129 6.08693V8.88469C33.4129 14.359 31.7197 18.485 28.3804 21.1459C25.1665 23.7081 21.2113 24.2443 18.461 24.2443C14.2662 24.2443 10.6537 22.9632 8.01535 20.5424C5.07246 17.8389 3.51367 13.8071 3.51367 8.88469V6.08693C3.51367 5.22539 4.2102 4.52539 5.07022 4.52539Z" fill="white"/>
<path d="M12.344 4.52075H24.5904C25.9162 4.52075 26.989 5.59543 26.989 6.92364C26.989 12.6897 23.8826 15.9967 18.4671 15.9967C13.0517 15.9967 9.94531 12.6897 9.94531 6.92364C9.94531 5.59543 11.0181 4.52075 12.344 4.52075ZM22.6329 7.64159H14.2723C13.5982 7.64159 13.1054 8.26306 13.2376 8.92268C13.7706 11.5791 15.4951 12.8781 18.4671 12.8781C20.4582 12.8781 23.0136 12.4227 23.699 8.92716C23.8289 8.25857 23.3093 7.64159 22.6329 7.64159Z" fill="#4CC9F0"/>
<path d="M18.4655 21.1233C23.881 21.1233 26.9873 24.4303 26.9873 30.1964V30.3736C26.9873 31.1835 26.3266 31.8454 25.5181 31.8454C24.6133 31.8454 23.872 31.1028 23.872 30.1964C23.872 24.8589 20.7858 24.2419 18.4655 24.2419C14.8261 24.2419 13.0567 26.1893 13.0567 30.1964V30.3736C13.0567 31.1835 12.3961 31.8454 11.5875 31.8454C10.6827 31.8454 9.94141 31.1028 9.94141 30.1964C9.94365 24.4303 13.05 21.1233 18.4655 21.1233Z" fill="white"/>
<path d="M43.2489 5.12207C46.1694 5.12207 48.4829 5.38233 50.7674 7.09194C54.0932 9.58233 54.6711 13.1451 54.6711 15.29C54.6711 18.6509 53.2534 21.5766 50.5949 23.4589C48.2522 25.1102 46.026 25.3996 43.1929 25.3996H40.2993C39.5804 25.3996 38.998 24.8163 38.998 24.0961V6.4256C38.998 5.7054 39.5804 5.12207 40.2993 5.12207H43.2489ZM42.1201 21.1974C42.1201 21.9176 42.7024 22.5009 43.4213 22.5009C45.0115 22.5009 47.0361 22.4134 48.7987 21.0516C50.4762 19.7772 51.4303 17.6637 51.4303 15.2878C51.4303 12.9993 50.5344 10.7109 48.8278 9.43649C47.063 8.1038 44.9533 8.0163 43.4213 8.0163C42.7024 8.0163 42.1201 8.59963 42.1201 9.31983V21.1974Z" fill="white"/>
<path d="M62.62 5.12207C65.5405 5.12207 67.854 5.38233 70.1385 7.09194C73.4643 9.58233 74.0421 13.1451 74.0421 15.29C74.0421 18.6509 72.6245 21.5766 69.966 23.4589C67.6233 25.1102 65.3971 25.3996 62.564 25.3996H59.6704C58.9514 25.3996 58.3691 24.8163 58.3691 24.0961V6.4256C58.3691 5.7054 58.9514 5.12207 59.6704 5.12207H62.62ZM61.4912 21.1974C61.4912 21.9176 62.0735 22.5009 62.7924 22.5009C64.3826 22.5009 66.4072 22.4134 68.1698 21.0516C69.8473 19.7772 70.8014 17.6637 70.8014 15.2878C70.8014 12.9993 69.9055 10.7109 68.1989 9.43649C66.4341 8.1038 64.3243 8.0163 62.7924 8.0163C62.0735 8.0163 61.4912 8.59963 61.4912 9.31983V21.1974Z" fill="white"/>
<path d="M107.358 8.48078H103.346C102.567 8.48078 101.933 9.11571 101.933 9.89648V11.8192C101.933 12.6 102.567 13.2349 103.346 13.2349H107.131C107.911 13.2349 108.545 13.8676 108.545 14.6484V14.6506C108.545 15.4314 107.913 16.0664 107.131 16.0664H103.346C102.567 16.0664 101.933 16.699 101.933 17.4798V24.0446C101.933 24.8253 101.299 25.458 100.522 25.458H100.294C99.5144 25.458 98.8828 24.8253 98.8828 24.0446V7.06507C98.8828 6.2843 99.5144 5.65161 100.294 5.65161H107.355C108.135 5.65161 108.766 6.2843 108.766 7.06507C108.769 7.84584 108.137 8.48078 107.358 8.48078Z" fill="#4CC9F0"/>
<path d="M115.496 7.06507V24.0423C115.496 24.8231 114.862 25.458 114.083 25.458H113.857C113.077 25.458 112.443 24.8253 112.443 24.0423V7.06507C112.443 6.2843 113.077 5.65161 113.857 5.65161H114.083C114.862 5.65161 115.496 6.2843 115.496 7.06507Z" fill="#4CC9F0"/>
<path d="M126.252 9.89648V24.0446C126.252 24.8253 125.618 25.4603 124.839 25.4603H124.612C123.833 25.4603 123.199 24.8276 123.199 24.0446V9.89648C123.199 9.11571 122.568 8.48078 121.786 8.48078H120.093C119.314 8.48078 118.68 7.84809 118.68 7.06732C118.68 6.28655 119.311 5.65161 120.093 5.65161H129.358C130.138 5.65161 130.772 6.2843 130.772 7.06732C130.772 7.84809 130.138 8.48078 129.358 8.48078H127.665C126.883 8.48078 126.252 9.11347 126.252 9.89648Z" fill="#4CC9F0"/>
<path d="M133.861 24.0447V7.87959C133.861 6.60299 135.416 5.97927 136.294 6.90138L145.72 16.7911C146.6 17.7132 148.152 17.0895 148.152 15.8129V7.06292C148.152 6.28215 148.784 5.64722 149.566 5.64722H149.792C150.571 5.64722 151.205 6.27991 151.205 7.06292V23.1136C151.205 24.3902 149.651 25.0139 148.771 24.0918L139.346 14.202C138.466 13.2799 136.914 13.9036 136.914 15.1802V24.0424C136.914 24.8232 136.28 25.4581 135.501 25.4581H135.275C134.493 25.4581 133.861 24.8254 133.861 24.0447Z" fill="#4CC9F0"/>
<path d="M164.892 8.48078H159.864C159.085 8.48078 158.453 9.11571 158.453 9.89648V11.8192C158.453 12.6 159.087 13.2349 159.864 13.2349H164.666C165.445 13.2349 166.077 13.8676 166.077 14.6484V14.6506C166.077 15.4314 165.445 16.0664 164.666 16.0664H159.864C159.085 16.0664 158.453 16.699 158.453 17.4798V21.2154C158.453 21.9962 159.087 22.6289 159.864 22.6289H164.892C165.671 22.6289 166.305 23.2615 166.305 24.0446C166.305 24.8253 165.671 25.458 164.892 25.458H156.814C156.034 25.458 155.4 24.8253 155.4 24.0446V7.06507C155.4 6.2843 156.032 5.65161 156.814 5.65161H164.892C165.671 5.65161 166.305 6.2843 166.305 7.06507C166.305 7.84584 165.671 8.48078 164.892 8.48078Z" fill="#4CC9F0"/>
<path d="M178.851 8.92491C178.688 8.76561 178.498 8.61305 178.283 8.47395C178.03 8.31016 177.734 8.20023 177.436 8.15087C175.499 7.82555 173.821 8.68933 173.821 10.4326C173.821 11.8214 175.008 12.4989 175.938 12.8669L177.915 13.6589C179.835 14.4127 182.527 15.88 182.601 19.3643C182.688 23.3175 178.997 26.3509 175.093 25.7788C173.671 25.5701 172.482 24.9374 171.53 23.847C171.167 23.4342 170.769 22.8755 170.448 22.1643C169.933 21.0201 170.549 19.8467 171.772 19.582L171.969 19.5393C172.43 19.4406 172.865 19.7457 172.966 20.2079C173.107 20.8473 173.371 21.4307 173.707 21.8659C174.412 22.7993 175.232 23.0236 176.249 23.0236C178.538 23.0236 179.555 21.3858 179.555 19.7143C179.555 17.7332 177.944 16.8829 176.704 16.3467L174.811 15.5255C172.804 14.6505 170.771 13.2909 170.771 10.5179C170.771 7.3185 173.481 5.25439 176.56 5.25439C178.623 5.25439 179.781 5.96113 180.513 6.61177C180.948 6.99318 181.577 7.39478 181.694 8.32362C181.734 8.63773 181.66 8.81048 181.485 8.93164L181.075 9.17843C180.41 9.5733 179.405 9.46561 178.851 8.92491Z" fill="#4CC9F0"/>
<path d="M194.404 8.92491C194.239 8.76561 194.051 8.61305 193.836 8.47395C193.583 8.31016 193.287 8.20023 192.989 8.15087C191.052 7.82555 189.374 8.68933 189.374 10.4326C189.374 11.8214 190.561 12.4989 191.491 12.8669L193.468 13.6589C195.388 14.4127 198.078 15.88 198.154 19.3643C198.241 23.3175 194.55 26.3509 190.646 25.7788C189.224 25.5701 188.035 24.9374 187.083 23.847C186.72 23.4342 186.319 22.8755 186.001 22.1643C185.486 21.0201 186.1 19.8467 187.325 19.582L187.522 19.5393C187.983 19.4406 188.418 19.7457 188.519 20.2079C188.66 20.8473 188.924 21.4307 189.26 21.8659C189.966 22.7993 190.785 23.0236 191.802 23.0236C194.091 23.0236 195.108 21.3858 195.108 19.7143C195.108 17.7332 193.497 16.8829 192.254 16.3467L190.364 15.5255C188.357 14.6505 186.324 13.2909 186.324 10.5179C186.324 7.3185 189.034 5.25439 192.113 5.25439C194.174 5.25439 195.334 5.96113 196.066 6.61177C196.501 6.99318 197.13 7.39478 197.247 8.32362C197.287 8.63773 197.213 8.81048 197.038 8.93164L196.631 9.17843C195.963 9.5733 194.958 9.46561 194.404 8.92491Z" fill="#4CC9F0"/>
</svg>
